<?xml version="1.0" encoding="utf-8"?>
<!-- Generator: Adobe Illustrator 16.0.0, SVG Export Plug-In . SVG Version: 6.00 Build 0)  -->
<!DOCTYPE svg PUBLIC "-//W3C//DTD SVG 1.1//EN" "http://www.w3.org/Graphics/SVG/1.1/DTD/svg11.dtd">
<svg version="1.1" id="Layer_2" xmlns="http://www.w3.org/2000/svg" xmlns:xlink="http://www.w3.org/1999/xlink" x="0px" y="0px"
	 width="133.398px" height="24.629px" viewBox="0 0 133.398 24.629" enable-background="new 0 0 133.398 24.629"
	 xml:space="preserve">
<g>
	<path fill-rule="evenodd" clip-rule="evenodd" fill="#192352" d="M15.532,23.404c-1.259,0.5-2.626,0.774-4.05,0.774
		C5.142,24.179,0,18.765,0,12.091c0-2.271,0.594-4.399,1.629-6.214C2.454,10.777,5.516,18.908,15.532,23.404 M22.961,12.091
		c0,2.835-0.926,5.441-2.478,7.503C10.143,18.051,4.497,9.019,2.37,4.737C4.466,1.86,7.768,0,11.482,0
		C17.823,0,22.961,5.412,22.961,12.091z"/>
	<polygon fill-rule="evenodd" clip-rule="evenodd" fill="#192352" points="44.774,10.433 41.101,10.433 39.099,3.953 36.84,10.433 
		33.251,10.433 30.308,1.372 33.292,1.372 35.266,8.028 37.641,1.372 40.914,1.372 43.031,8.205 45.048,1.372 47.732,1.372 	"/>
	<path fill-rule="evenodd" clip-rule="evenodd" fill="#192352" d="M50.151,7.816c0.042,0.892,0.756,1.458,1.885,1.458
		c0.887,0,1.432-0.34,1.503-0.855h2.687c-0.128,1.397-1.571,2.166-4.275,2.166c-2.96,0-4.546-1.185-4.546-3.209
		c0-2.163,1.67-3.437,4.702-3.437c2.818,0,4.262,1.221,4.262,3.662v0.215H50.151z M51.938,5.259c-1.057,0-1.706,0.468-1.774,1.273
		h3.502C53.639,5.74,52.98,5.259,51.938,5.259z"/>
	<path fill-rule="evenodd" clip-rule="evenodd" fill="#192352" d="M61.89,10.569c-3.005,0-4.592-1.155-4.592-3.193
		c0-2.163,1.675-3.437,4.705-3.437c2.604,0,4.062,0.842,4.249,2.403h-2.746c-0.113-0.691-0.646-1.031-1.573-1.031
		c-1.115,0-1.789,0.716-1.789,2.024c0,1.159,0.631,1.802,1.775,1.802c1.028,0,1.587-0.393,1.599-1.171h2.836
		C66.251,9.752,64.793,10.569,61.89,10.569"/>
	<path fill-rule="evenodd" clip-rule="evenodd" fill="#192352" d="M72.056,10.585c-3.118,0-4.749-1.198-4.749-3.323
		c0-2.116,1.68-3.309,4.865-3.309c3.188,0,4.877,1.192,4.877,3.334C77.049,9.465,75.375,10.585,72.056,10.585 M72.184,5.223
		c-1.256,0-1.988,0.703-1.988,1.976c0,1.284,0.703,1.978,2.004,1.978c1.217,0,1.972-0.746,1.972-1.966
		C74.171,5.979,73.404,5.223,72.184,5.223z"/>
	<rect x="78.39" y="6.192" fill-rule="evenodd" clip-rule="evenodd" fill="#192352" width="5.234" height="2.163"/>
	<polygon fill-rule="evenodd" clip-rule="evenodd" fill="#192352" points="89.9,3.273 89.9,10.433 86.983,10.433 86.983,3.273 
		83.078,3.273 83.078,1.372 93.805,1.372 93.805,3.273 	"/>
	<path fill-rule="evenodd" clip-rule="evenodd" fill="#192352" d="M98.739,6.064c-1.416,0-2.189,0.745-2.189,2.165v2.203h-2.745V5.6
		c0-0.503-0.016-0.993-0.085-1.483h2.687c0.042,0.314,0.057,0.631,0.057,0.955v0.292c0.573-0.907,1.517-1.324,2.848-1.324h0.282
		v2.09C99.264,6.079,98.979,6.064,98.739,6.064"/>
	<path fill-rule="evenodd" clip-rule="evenodd" fill="#192352" d="M106.601,10.433c-0.111-0.225-0.172-0.491-0.172-0.817V9.501
		c-0.572,0.678-1.715,1.084-3.344,1.084c-1.845,0-2.845-0.719-2.845-1.914c0-0.769,0.384-1.384,1.117-1.773
		c0.714-0.39,1.931-0.44,3.675-0.44h1.327c0-0.063,0.015-0.126,0.015-0.178c0-0.69-0.471-1.057-1.342-1.057
		c-0.96,0-1.446,0.201-1.545,0.768h-2.788c0.183-1.409,1.598-2.023,4.376-2.023c2.668,0,3.944,0.741,3.944,2.414V9.6
		c0,0.303,0.03,0.569,0.144,0.833H106.601z M106.358,7.614h-0.215c-2.085,0-3.047,0.187-3.047,0.895
		c0,0.465,0.461,0.701,1.375,0.701c1.217,0,1.887-0.512,1.887-1.456V7.614z"/>
	<polygon fill-rule="evenodd" clip-rule="evenodd" fill="#192352" points="116.468,10.433 113.066,10.433 109.692,4.116 
		112.738,4.116 114.839,8.683 116.959,4.116 119.885,4.116 	"/>
	<path fill-rule="evenodd" clip-rule="evenodd" fill="#192352" d="M122.887,7.816c0.045,0.892,0.763,1.458,1.889,1.458
		c0.885,0,1.43-0.34,1.501-0.855h2.689c-0.131,1.397-1.574,2.166-4.276,2.166c-2.961,0-4.546-1.185-4.546-3.209
		c0-2.163,1.673-3.437,4.704-3.437c2.818,0,4.26,1.221,4.26,3.662v0.215H122.887z M124.678,5.259c-1.06,0-1.702,0.468-1.776,1.273
		h3.506C126.375,5.74,125.724,5.259,124.678,5.259z"/>
	<rect x="130.456" y="1.372" fill-rule="evenodd" clip-rule="evenodd" fill="#192352" width="2.747" height="9.061"/>
	<path fill="#192352" d="M133.398,19.49l-0.071,0.332h-0.693l-0.507,2.466c-0.027,0.137-0.043,0.234-0.043,0.296
		c0,0.184,0.107,0.276,0.316,0.276c0.107,0,0.24-0.027,0.402-0.078l-0.077,0.365c-0.174,0.053-0.312,0.079-0.414,0.079
		c-0.437,0-0.657-0.175-0.657-0.529c0-0.115,0.027-0.302,0.08-0.549l0.484-2.326h-0.541l0.07-0.332h0.557l0.217-1.015h0.416
		l-0.217,1.015H133.398z M131.049,20.351c0,0.127-0.018,0.267-0.049,0.421l-0.505,2.376h-0.416l0.52-2.431
		c0.027-0.132,0.044-0.252,0.044-0.359c0-0.387-0.236-0.576-0.697-0.576c-0.754,0-1.236,0.51-1.453,1.534l-0.389,1.832h-0.424
		l0.777-3.657h0.397l-0.116,0.557c0.398-0.424,0.824-0.636,1.289-0.636c0.321,0,0.572,0.086,0.752,0.251
		C130.955,19.83,131.049,20.059,131.049,20.351z M126.891,20.8c0-0.319-0.086-0.571-0.261-0.758
		c-0.173-0.184-0.412-0.276-0.712-0.276c-0.68,0-1.128,0.404-1.341,1.22h2.306C126.888,20.929,126.891,20.867,126.891,20.8z
		 M127.314,20.948c0,0.057-0.008,0.197-0.027,0.424h-2.776c-0.017,0.16-0.025,0.296-0.025,0.409c0,0.34,0.097,0.604,0.281,0.801
		c0.184,0.196,0.441,0.293,0.771,0.293c0.574,0,0.953-0.285,1.138-0.849h0.418c-0.211,0.809-0.745,1.214-1.593,1.214
		c-0.463,0-0.823-0.137-1.071-0.405c-0.255-0.271-0.378-0.657-0.378-1.16c0-0.662,0.173-1.206,0.516-1.633
		c0.344-0.425,0.783-0.636,1.317-0.636c0.453,0,0.803,0.135,1.053,0.403C127.191,20.084,127.314,20.46,127.314,20.948z
		 M123.514,20.293c0,0.101-0.016,0.227-0.05,0.382l-0.522,2.473h-0.413l0.507-2.461c0.037-0.179,0.054-0.304,0.054-0.369
		c0-0.374-0.205-0.559-0.624-0.559c-0.365,0-0.653,0.123-0.862,0.372c-0.202,0.233-0.358,0.596-0.465,1.094l-0.422,1.923h-0.427
		l0.56-2.57c0.025-0.108,0.031-0.21,0.031-0.303c0-0.347-0.2-0.516-0.605-0.516c-0.698,0-1.161,0.522-1.385,1.564l-0.399,1.824
		h-0.406l0.771-3.657h0.408l-0.13,0.549c0.335-0.422,0.734-0.633,1.202-0.633c0.518,0,0.838,0.207,0.949,0.621
		c0.316-0.414,0.737-0.621,1.261-0.621c0.3,0,0.54,0.076,0.709,0.231C123.43,19.793,123.514,20.015,123.514,20.293z M117.291,20.8
		c0-0.319-0.086-0.571-0.261-0.758c-0.173-0.184-0.408-0.276-0.712-0.276c-0.68,0-1.126,0.404-1.339,1.22h2.306
		C117.289,20.929,117.291,20.867,117.291,20.8z M117.712,20.948c0,0.057-0.007,0.197-0.03,0.424h-2.771
		c-0.018,0.16-0.022,0.296-0.022,0.409c0,0.34,0.09,0.604,0.275,0.801c0.186,0.196,0.443,0.293,0.772,0.293
		c0.575,0,0.956-0.285,1.144-0.849h0.418c-0.213,0.809-0.743,1.214-1.597,1.214c-0.466,0-0.822-0.137-1.076-0.405
		c-0.249-0.271-0.375-0.657-0.375-1.16c0-0.662,0.173-1.206,0.518-1.633c0.344-0.425,0.783-0.636,1.315-0.636
		c0.455,0,0.808,0.135,1.058,0.403C117.589,20.084,117.712,20.46,117.712,20.948z M113.315,20.955c0-0.376-0.088-0.667-0.272-0.877
		c-0.186-0.205-0.435-0.313-0.748-0.313c-0.418,0-0.765,0.185-1.039,0.558c-0.277,0.372-0.413,0.817-0.413,1.337
		c0,0.374,0.096,0.676,0.279,0.89c0.182,0.216,0.442,0.325,0.771,0.325c0.416,0,0.762-0.184,1.02-0.539
		C113.184,21.976,113.315,21.515,113.315,20.955z M114.091,19.497L113.352,23c-0.123,0.584-0.29,0.99-0.507,1.221
		c-0.253,0.265-0.655,0.4-1.207,0.4c-0.847,0-1.303-0.357-1.359-1.076h0.408c0.049,0.468,0.365,0.704,0.938,0.704
		c0.437,0,0.756-0.12,0.958-0.361c0.177-0.217,0.316-0.601,0.407-1.154c-0.316,0.33-0.709,0.499-1.167,0.499
		c-0.435,0-0.782-0.14-1.041-0.422c-0.261-0.28-0.389-0.656-0.389-1.12c0-0.639,0.177-1.182,0.535-1.618
		c0.361-0.439,0.8-0.661,1.315-0.661c0.639,0,1.063,0.286,1.272,0.854l0.159-0.769H114.091z M109.213,21.266
		c-0.171,0.066-0.415,0.106-0.723,0.126c-0.384,0.024-0.64,0.047-0.761,0.071c-0.466,0.097-0.701,0.344-0.701,0.749
		c0,0.201,0.066,0.365,0.205,0.485c0.136,0.121,0.319,0.185,0.542,0.185C108.591,22.882,109.068,22.343,109.213,21.266z
		 M109.796,22.811l-0.066,0.337c-0.084,0.044-0.182,0.065-0.29,0.065c-0.327,0-0.488-0.161-0.488-0.479
		c-0.384,0.344-0.801,0.516-1.247,0.516c-0.345,0-0.623-0.097-0.826-0.289c-0.202-0.188-0.303-0.436-0.303-0.735
		c0-0.421,0.18-0.742,0.544-0.959c0.196-0.118,0.596-0.199,1.197-0.246c0.452-0.039,0.725-0.078,0.826-0.121
		c0.16-0.068,0.238-0.238,0.238-0.499c0-0.424-0.293-0.634-0.879-0.634c-0.655,0-1.02,0.249-1.096,0.746h-0.386
		c0.112-0.726,0.627-1.091,1.546-1.091c0.387,0,0.687,0.082,0.896,0.248c0.214,0.166,0.321,0.4,0.321,0.695
		c0,0.116-0.018,0.265-0.055,0.436l-0.364,1.681c-0.01,0.064-0.019,0.126-0.019,0.182c0,0.131,0.062,0.198,0.183,0.198
		C109.614,22.86,109.703,22.843,109.796,22.811z M106.213,20.351c0,0.127-0.017,0.267-0.051,0.421l-0.507,2.376h-0.417l0.521-2.431
		c0.03-0.132,0.04-0.252,0.04-0.359c0-0.387-0.229-0.576-0.695-0.576c-0.75,0-1.232,0.51-1.454,1.534l-0.386,1.832h-0.423
		l0.778-3.657h0.391l-0.107,0.557c0.391-0.424,0.822-0.636,1.285-0.636c0.321,0,0.571,0.086,0.754,0.251
		C106.121,19.83,106.213,20.059,106.213,20.351z M101.821,21.266c-0.176,0.066-0.418,0.106-0.727,0.126
		c-0.384,0.024-0.636,0.047-0.762,0.071c-0.465,0.097-0.696,0.344-0.696,0.749c0,0.201,0.066,0.365,0.203,0.485
		c0.139,0.121,0.319,0.185,0.543,0.185C101.194,22.882,101.673,22.343,101.821,21.266z M102.406,22.811l-0.07,0.337
		c-0.082,0.044-0.175,0.065-0.291,0.065c-0.325,0-0.484-0.161-0.484-0.479c-0.387,0.344-0.801,0.516-1.247,0.516
		c-0.35,0-0.624-0.097-0.825-0.289c-0.205-0.188-0.306-0.436-0.306-0.735c0-0.421,0.183-0.742,0.545-0.959
		c0.197-0.118,0.596-0.199,1.196-0.246c0.452-0.039,0.73-0.078,0.828-0.121c0.158-0.068,0.239-0.238,0.239-0.499
		c0-0.424-0.296-0.634-0.881-0.634c-0.651,0-1.018,0.249-1.093,0.746h-0.387c0.113-0.726,0.63-1.091,1.544-1.091
		c0.387,0,0.689,0.082,0.898,0.248c0.214,0.166,0.319,0.4,0.319,0.695c0,0.116-0.019,0.265-0.055,0.436l-0.36,1.681
		c-0.017,0.064-0.02,0.126-0.02,0.182c0,0.131,0.06,0.198,0.183,0.198C102.223,22.86,102.311,22.843,102.406,22.811z M98.833,20.293
		c0,0.101-0.019,0.227-0.052,0.382l-0.52,2.473h-0.413l0.504-2.461c0.037-0.179,0.057-0.304,0.057-0.369
		c0-0.374-0.21-0.559-0.629-0.559c-0.364,0-0.647,0.123-0.86,0.372c-0.198,0.233-0.357,0.596-0.464,1.094l-0.425,1.923h-0.418
		l0.555-2.57c0.027-0.108,0.035-0.21,0.035-0.303c0-0.347-0.205-0.516-0.605-0.516c-0.701,0-1.161,0.522-1.39,1.564l-0.391,1.824
		h-0.409l0.769-3.657h0.406l-0.126,0.549c0.332-0.422,0.732-0.633,1.198-0.633c0.522,0,0.84,0.207,0.953,0.621
		c0.313-0.414,0.733-0.621,1.261-0.621c0.298,0,0.538,0.076,0.709,0.231C98.747,19.793,98.833,20.015,98.833,20.293z M91.605,18.078
		l-1.076,5.069h-0.414l1.078-5.069H91.605z M89.302,20.8c0-0.319-0.086-0.571-0.258-0.758c-0.175-0.184-0.414-0.276-0.714-0.276
		c-0.68,0-1.128,0.404-1.339,1.22h2.303C89.302,20.929,89.302,20.867,89.302,20.8z M89.727,20.948c0,0.057-0.012,0.197-0.028,0.424
		h-2.779c-0.011,0.16-0.019,0.296-0.019,0.409c0,0.34,0.091,0.604,0.281,0.801c0.182,0.196,0.436,0.293,0.766,0.293
		c0.573,0,0.955-0.285,1.143-0.849h0.415c-0.211,0.809-0.744,1.214-1.593,1.214c-0.463,0-0.82-0.137-1.071-0.405
		c-0.253-0.271-0.379-0.657-0.379-1.16c0-0.662,0.173-1.206,0.516-1.633c0.348-0.425,0.787-0.636,1.318-0.636
		c0.454,0,0.809,0.135,1.054,0.403C89.6,20.084,89.727,20.46,89.727,20.948z M86.427,19.49l-1.874,3.657h-0.409L83.41,19.49h0.394
		l0.621,3.087l1.571-3.087H86.427z M82.218,21.266c-0.173,0.066-0.415,0.106-0.726,0.126c-0.384,0.024-0.64,0.047-0.761,0.071
		c-0.463,0.097-0.697,0.344-0.697,0.749c0,0.201,0.068,0.365,0.204,0.485c0.133,0.121,0.319,0.185,0.54,0.185
		C81.594,22.882,82.073,22.343,82.218,21.266z M82.804,22.811l-0.072,0.337c-0.077,0.044-0.177,0.065-0.289,0.065
		c-0.322,0-0.482-0.161-0.482-0.479c-0.389,0.344-0.803,0.516-1.251,0.516c-0.348,0-0.621-0.097-0.826-0.289
		c-0.197-0.188-0.3-0.436-0.3-0.735c0-0.421,0.182-0.742,0.539-0.959c0.198-0.118,0.596-0.199,1.202-0.246
		c0.449-0.039,0.727-0.078,0.826-0.121c0.158-0.068,0.239-0.238,0.239-0.499c0-0.424-0.297-0.634-0.881-0.634
		c-0.656,0-1.021,0.249-1.097,0.746h-0.388c0.115-0.726,0.629-1.091,1.546-1.091c0.391,0,0.688,0.082,0.9,0.248
		c0.213,0.166,0.32,0.4,0.32,0.695c0,0.116-0.019,0.265-0.059,0.436l-0.359,1.681c-0.013,0.064-0.021,0.126-0.021,0.182
		c0,0.131,0.062,0.198,0.186,0.198C82.619,22.86,82.709,22.843,82.804,22.811z M79.86,19.455l-0.093,0.406
		c-0.11-0.011-0.197-0.02-0.246-0.02c-0.289,0-0.515,0.121-0.688,0.357c-0.169,0.239-0.309,0.605-0.414,1.108l-0.372,1.84h-0.436
		l0.746-3.657h0.39l-0.103,0.479c0.33-0.381,0.637-0.57,0.917-0.57C79.656,19.398,79.755,19.417,79.86,19.455z M77.715,19.49
		l-0.069,0.332h-0.69l-0.509,2.466c-0.027,0.137-0.041,0.234-0.041,0.296c0,0.184,0.107,0.276,0.316,0.276
		c0.105,0,0.24-0.027,0.403-0.078l-0.077,0.365c-0.172,0.053-0.312,0.079-0.414,0.079c-0.44,0-0.66-0.175-0.66-0.529
		c0-0.115,0.027-0.302,0.08-0.549l0.484-2.326h-0.539l0.068-0.332h0.558l0.219-1.015h0.413l-0.216,1.015H77.715z M74.135,19.455
		l-0.091,0.406c-0.114-0.011-0.197-0.02-0.246-0.02c-0.286,0-0.517,0.121-0.69,0.357c-0.169,0.239-0.308,0.605-0.411,1.108
		l-0.373,1.84h-0.438l0.749-3.657h0.387l-0.099,0.479c0.331-0.381,0.634-0.57,0.918-0.57C73.934,19.398,74.035,19.417,74.135,19.455
		z M71.669,19.49l-0.777,3.657h-0.393l0.114-0.549c-0.401,0.419-0.828,0.628-1.293,0.628c-0.321,0-0.566-0.083-0.75-0.25
		c-0.182-0.163-0.271-0.39-0.271-0.684c0-0.128,0.015-0.273,0.049-0.429l0.507-2.374h0.414l-0.512,2.438
		c-0.035,0.154-0.05,0.275-0.05,0.359c0,0.385,0.23,0.579,0.699,0.579c0.749,0,1.23-0.515,1.45-1.537l0.397-1.84H71.669z
		 M67.282,20.948c0-0.801-0.355-1.204-1.064-1.204c-0.4,0-0.739,0.184-1.007,0.556c-0.267,0.373-0.398,0.831-0.398,1.384
		c0,0.383,0.091,0.681,0.273,0.89c0.182,0.213,0.441,0.314,0.776,0.314c0.405,0,0.744-0.188,1.016-0.563
		C67.147,21.945,67.282,21.491,67.282,20.948z M67.728,20.97c0,0.668-0.175,1.215-0.527,1.642c-0.348,0.429-0.797,0.645-1.347,0.645
		c-0.466,0-0.832-0.14-1.091-0.419c-0.263-0.274-0.396-0.661-0.396-1.153c0-0.648,0.18-1.196,0.537-1.637
		c0.355-0.44,0.803-0.663,1.349-0.663c0.464,0,0.828,0.139,1.087,0.411C67.598,20.072,67.728,20.463,67.728,20.97z M64.346,19.49
		l-2.218,4.365c-0.136,0.276-0.256,0.46-0.364,0.562c-0.143,0.14-0.33,0.212-0.556,0.212c-0.104,0-0.227-0.02-0.368-0.058
		l0.069-0.365c0.106,0.015,0.188,0.021,0.25,0.021c0.205,0,0.373-0.127,0.509-0.38l0.38-0.744l-0.739-3.613h0.418l0.608,3.1
		l1.573-3.1H64.346z M58.289,20.955c0-0.376-0.091-0.667-0.271-0.877c-0.188-0.205-0.437-0.313-0.75-0.313
		c-0.419,0-0.765,0.185-1.039,0.558c-0.276,0.372-0.412,0.817-0.412,1.337c0,0.374,0.091,0.676,0.277,0.89
		c0.184,0.216,0.443,0.325,0.773,0.325c0.416,0,0.76-0.184,1.026-0.539C58.16,21.976,58.289,21.515,58.289,20.955z M59.064,19.497
		L58.323,23c-0.118,0.584-0.288,0.99-0.505,1.221c-0.251,0.265-0.655,0.4-1.207,0.4c-0.848,0-1.304-0.357-1.36-1.076h0.412
		c0.049,0.468,0.363,0.704,0.938,0.704c0.434,0,0.754-0.12,0.955-0.361c0.182-0.217,0.316-0.601,0.41-1.154
		c-0.321,0.33-0.708,0.499-1.169,0.499c-0.435,0-0.776-0.14-1.04-0.422c-0.261-0.28-0.39-0.656-0.39-1.12
		c0-0.639,0.181-1.182,0.537-1.618c0.357-0.439,0.798-0.661,1.315-0.661c0.639,0,1.062,0.286,1.267,0.854l0.164-0.769H59.064z
		 M54.815,20.351c0,0.127-0.018,0.267-0.05,0.421l-0.509,2.376h-0.412l0.518-2.431c0.029-0.132,0.044-0.252,0.044-0.359
		c0-0.387-0.232-0.576-0.699-0.576c-0.751,0-1.234,0.51-1.448,1.534l-0.389,1.832h-0.425l0.775-3.657h0.395l-0.113,0.557
		c0.394-0.424,0.826-0.636,1.291-0.636c0.319,0,0.569,0.086,0.752,0.251C54.727,19.83,54.815,20.059,54.815,20.351z M51.229,19.49
		l-0.775,3.657h-0.414l0.771-3.657H51.229z M51.554,18.078l-0.123,0.582h-0.485l0.121-0.582H51.554z M49.621,20.351
		c0,0.127-0.019,0.267-0.048,0.421l-0.5,2.376h-0.423l0.512-2.431c0.035-0.155,0.052-0.275,0.052-0.359
		c0-0.387-0.234-0.576-0.699-0.576c-0.753,0-1.234,0.51-1.453,1.534l-0.386,1.832h-0.418l1.072-5.069h0.424l-0.407,1.937
		c0.394-0.401,0.815-0.604,1.261-0.604c0.317,0,0.567,0.086,0.747,0.251C49.532,19.83,49.621,20.059,49.621,20.351z M45.905,20.71
		h-0.401c-0.006-0.297-0.105-0.528-0.287-0.695c-0.187-0.173-0.43-0.256-0.735-0.256c-0.406,0-0.75,0.185-1.027,0.559
		c-0.271,0.369-0.41,0.819-0.41,1.343c0,0.383,0.099,0.678,0.291,0.892c0.197,0.214,0.471,0.323,0.823,0.323
		c0.275,0,0.521-0.087,0.739-0.256c0.216-0.169,0.366-0.396,0.451-0.69h0.455c-0.105,0.414-0.304,0.736-0.6,0.968
		c-0.294,0.234-0.644,0.353-1.06,0.353c-0.478,0-0.852-0.14-1.126-0.419c-0.275-0.275-0.412-0.662-0.412-1.162
		c0-0.644,0.175-1.181,0.527-1.611c0.353-0.429,0.794-0.646,1.335-0.646c0.451,0,0.801,0.116,1.054,0.345
		C45.772,19.982,45.901,20.3,45.905,20.71z M42.227,19.49l-0.777,3.657h-0.415l0.778-3.657H42.227z M42.55,18.078l-0.119,0.582
		h-0.484l0.119-0.582H42.55z M41.262,19.455l-0.093,0.406c-0.111-0.011-0.193-0.02-0.247-0.02c-0.285,0-0.512,0.121-0.684,0.357
		c-0.173,0.239-0.311,0.605-0.412,1.108l-0.374,1.84H39.01l0.749-3.657h0.39l-0.099,0.479c0.33-0.381,0.634-0.57,0.917-0.57
		C41.057,19.398,41.158,19.417,41.262,19.455z M38.583,20.351c0,0.127-0.016,0.267-0.048,0.421l-0.509,2.376h-0.414l0.52-2.431
		c0.03-0.132,0.042-0.252,0.042-0.359c0-0.387-0.232-0.576-0.695-0.576c-0.751,0-1.236,0.51-1.455,1.534l-0.387,1.832h-0.423
		l0.773-3.657h0.397l-0.11,0.557c0.394-0.424,0.825-0.636,1.287-0.636c0.321,0,0.57,0.086,0.755,0.251
		C38.494,19.83,38.583,20.059,38.583,20.351z M35.269,17.281l-0.111,0.479h-2.793l-0.441,2.098h2.742l-0.097,0.483h-2.75
		l-0.491,2.35h3.159l-0.081,0.456h-3.705l1.224-5.866H35.269z"/>
</g>
</svg>
